<?xml version="1.0" encoding="utf-8"?>
<!-- Generator: Adobe Illustrator 17.1.0, SVG Export Plug-In . SVG Version: 6.00 Build 0)  -->
<!DOCTYPE svg PUBLIC "-//W3C//DTD SVG 1.1//EN" "http://www.w3.org/Graphics/SVG/1.1/DTD/svg11.dtd">
<svg version="1.1" xmlns="http://www.w3.org/2000/svg" xmlns:xlink="http://www.w3.org/1999/xlink" x="0px" y="0px"
	 viewBox="0 0 384.3 128.3" style="enable-background:new 0 0 384.3 128.3;" xml:space="preserve">
<style type="text/css">
	.st0{display:none;}
	.st1{display:inline;fill:#0000FF;}
	.st2{fill:none;}
</style>
<g id="Layer_2" class="st0">
	<rect x="54" y="-7.7" class="st1" width="640" height="128"/>
</g>
<g id="Layer_1">
	<g>
		<path d="M28,94.3l28.2-77.1l3-7.9l2.8,8.2v0l23.9,81l7.2,24.4l-12.7-22.1l0,0c-0.9-1.7-2-3.5-3-5.2c-1-1.7-2.1-3.5-3.2-5.2
			c-1.1-1.7-2.3-3.4-3.4-5c-1.2-1.7-2.4-3.3-3.6-4.9c-1.2-1.6-2.5-3.2-3.8-4.8c-1.3-1.6-2.6-3.1-4-4.6c-1.4-1.5-2.8-3-4.2-4.4
			c-1.5-1.4-2.9-2.8-4.5-4.1c-0.7-0.7-1.5-1.3-2.3-2c-0.8-0.6-1.6-1.3-2.4-1.9c-0.8-0.6-1.6-1.2-2.5-1.8l-2.5-1.7
			c-1.7-1-3.5-2.1-5.3-2.9l-1.4-0.7l-1.4-0.6c-0.9-0.4-1.9-0.8-2.9-1c-1-0.3-1.9-0.6-2.9-0.8l-3-0.6l-3-0.3c-1-0.1-2,0-3.1,0
			c-1,0-2,0.2-3,0.3L13.3,49l-1.5,0.4c-2,0.4-3.9,1.2-5.8,2c1.9-0.8,3.7-1.8,5.7-2.3l1.5-0.5l1.5-0.3c1-0.2,2-0.5,3.1-0.5
			c1-0.1,2.1-0.2,3.1-0.2l3.1,0.1l3.1,0.4c1,0.1,2.1,0.4,3.1,0.7c1,0.2,2,0.6,3,0.9l1.5,0.5l1.5,0.6c2,0.7,3.8,1.7,5.7,2.7l2.7,1.6
			c0.9,0.5,1.8,1.1,2.7,1.7c0.9,0.6,1.7,1.2,2.6,1.8c0.9,0.6,1.7,1.2,2.5,1.9c1.7,1.3,3.3,2.6,4.9,4c1.6,1.4,3.1,2.8,4.6,4.3
			c1.5,1.4,3,3,4.4,4.5c1.4,1.5,2.8,3.1,4.2,4.7c1.4,1.6,2.7,3.2,4,4.8c1.3,1.6,2.6,3.3,3.8,5c1.2,1.7,2.5,3.4,3.7,5.1
			c1.2,1.7,2.3,3.5,3.5,5.3l0,0l-5.5,2.3L56,19.2v0l5.7,0.3L28,94.3z"/>
	</g>
	<g>
		<path d="M102.4,54.5v37.9h-5V54.5H102.4z"/>
		<path d="M111.1,55c2.5-0.5,6.2-0.8,9.6-0.8c5.4,0,8.8,1,11.2,3.1c2,1.7,3.1,4.3,3.1,7.2c0,5-3.2,8.3-7.3,9.7v0.2
			c3,1,4.8,3.7,5.7,7.6c1.3,5.3,2.2,8.9,3,10.4h-5.2c-0.6-1.1-1.5-4.3-2.6-9c-1.2-5.2-3.2-7.2-7.8-7.4h-4.7v16.4h-5V55z M116.2,72.2
			h5.1c5.4,0,8.8-2.9,8.8-7.2c0-4.9-3.6-7-8.9-7.1c-2.4,0-4.1,0.2-5,0.4V72.2z"/>
		<path d="M142.1,55c2.2-0.4,5.6-0.8,9.2-0.8c5,0,8.2,0.8,10.7,2.8c2,1.5,3.2,3.7,3.2,6.7c0,3.7-2.5,6.9-6.6,8.3V72
			c3.7,0.9,8,3.9,8,9.5c0,3.3-1.3,5.7-3.3,7.6c-2.7,2.4-7.1,3.5-13.4,3.5c-3.5,0-6.1-0.2-7.8-0.4V55z M147.1,70.5h4.5
			c5.3,0,8.4-2.7,8.4-6.4c0-4.4-3.5-6.2-8.5-6.2c-2.3,0-3.6,0.2-4.4,0.3V70.5z M147.1,88.6c1,0.2,2.4,0.2,4.2,0.2
			c5.2,0,10-1.9,10-7.4c0-5.2-4.5-7.3-10-7.3h-4.1V88.6z"/>
		<path d="M206.5,73c0,13-8.1,20-18,20c-10.3,0-17.4-7.8-17.4-19.2c0-12,7.7-19.9,18-19.9C199.7,53.8,206.5,61.8,206.5,73z
			 M176.4,73.6c0,8.1,4.5,15.3,12.4,15.3c7.9,0,12.4-7.1,12.4-15.7c0-7.5-4-15.4-12.4-15.4C180.5,57.8,176.4,65.3,176.4,73.6z"/>
		<path d="M218,54.5v22.4c0,8.5,3.9,12.1,9,12.1c5.8,0,9.4-3.7,9.4-12.1V54.5h5.1v22.1c0,11.6-6.3,16.4-14.7,16.4
			C219,93,213,88.5,213,76.8V54.5H218z"/>
		<path d="M250.3,55c2.5-0.5,6.2-0.8,9.6-0.8c5.4,0,8.8,1,11.2,3.1c2,1.7,3.1,4.3,3.1,7.2c0,5-3.2,8.3-7.3,9.7v0.2
			c3,1,4.8,3.7,5.7,7.6c1.3,5.3,2.2,8.9,3,10.4h-5.2c-0.6-1.1-1.5-4.3-2.6-9c-1.2-5.2-3.2-7.2-7.8-7.4h-4.7v16.4h-5V55z M255.3,72.2
			h5.1c5.4,0,8.8-2.9,8.8-7.2c0-4.9-3.6-7-8.9-7.1c-2.4,0-4.1,0.2-5,0.4V72.2z"/>
		<path d="M281.3,92.3V54.5h5.5l12.4,19.2c2.9,4.4,5.1,8.4,7,12.3l0.1-0.1c-0.5-5.1-0.6-9.7-0.6-15.6V54.5h4.7v37.9h-5.1L293,73.1
			c-2.7-4.2-5.3-8.5-7.3-12.6l-0.2,0.1c0.3,4.8,0.4,9.3,0.4,15.6v16.2H281.3z"/>
		<path d="M339.3,74.6h-15.1v13.7H341v4.1h-21.8V54.5h21v4.1h-16v12h15.1V74.6z"/>
	</g>
	<g>
		<path class="st2" d="M293,106.3"/>
	</g>
	<g>
		<path class="st2" d="M97,106.3"/>
	</g>
	<g>
		<path class="st2" d="M315,97.8"/>
	</g>
	<g>
		<path class="st2" d="M97,97.8"/>
	</g>
	<g>
		<path d="M232.9,108.6c0.6,0,1.2-0.2,1.5-0.6c0.4-0.4,0.5-1.1,0.5-2.9v-6.5h1.4v7c0,1.5-0.2,2.5-0.9,3.2c-0.6,0.6-1.6,0.9-2.4,0.9
			L232.9,108.6z M236.6,96.4c0,0.5-0.3,0.9-0.9,0.9c-0.5,0-0.9-0.4-0.9-0.9c0-0.5,0.4-0.9,0.9-0.9C236.2,95.5,236.6,95.9,236.6,96.4
			z"/>
		<path d="M245.2,104.2c0,0.8,0,1.5,0.1,2.1H244l-0.1-1.3h0c-0.4,0.6-1.2,1.4-2.6,1.4c-1.2,0-2.7-0.7-2.7-3.4v-4.5h1.4v4.3
			c0,1.5,0.4,2.5,1.7,2.5c0.9,0,1.6-0.7,1.9-1.3c0.1-0.2,0.1-0.5,0.1-0.7v-4.8h1.4V104.2z"/>
		<path d="M247.3,104.9c0.4,0.3,1.2,0.6,1.9,0.6c1,0,1.5-0.5,1.5-1.2c0-0.7-0.4-1-1.4-1.4c-1.4-0.5-2-1.3-2-2.2c0-1.2,1-2.3,2.7-2.3
			c0.8,0,1.5,0.2,1.9,0.5l-0.4,1c-0.3-0.2-0.9-0.4-1.6-0.4c-0.8,0-1.3,0.5-1.3,1.1c0,0.6,0.5,0.9,1.5,1.3c1.3,0.5,2,1.2,2,2.3
			c0,1.4-1.1,2.3-2.9,2.3c-0.8,0-1.6-0.2-2.2-0.5L247.3,104.9z"/>
		<path d="M255.6,96.4v2.2h2v1.1h-2v4.2c0,1,0.3,1.5,1.1,1.5c0.4,0,0.6,0,0.8-0.1l0.1,1.1c-0.3,0.1-0.7,0.2-1.2,0.2
			c-0.7,0-1.2-0.2-1.5-0.6c-0.4-0.4-0.5-1.1-0.5-2v-4.2H253v-1.1h1.2v-1.9L255.6,96.4z"/>
		<path d="M262.7,106.3v-6.7h-1.1v-1.1h1.1v-0.3c0-1.1,0.4-2,1.1-2.7c0.6-0.5,1.4-0.8,2.5-0.8c0.9,0,1.7,0.2,2.3,0.5v11h-1.4V96.1
			c-0.2-0.1-0.6-0.2-1.2-0.2c-1.5,0-2,1.1-2,2.3v0.4h1.8v1.1h-1.8v6.7H262.7z"/>
		<path d="M271.4,98.6l1.7,4.6c0.2,0.5,0.4,1.1,0.5,1.6h0c0.1-0.5,0.3-1.1,0.5-1.6l1.5-4.5h1.5l-2.1,5.5c-1,2.7-1.7,4-2.7,4.9
			c-0.7,0.6-1.4,0.8-1.7,0.9l-0.4-1.2c0.4-0.1,0.8-0.3,1.2-0.7c0.4-0.3,0.9-0.8,1.2-1.6c0.1-0.1,0.1-0.3,0.1-0.3s0-0.2-0.1-0.4
			l-2.9-7.1H271.4z"/>
		<path d="M277.5,105.5c0-0.6,0.4-1,1-1c0.6,0,0.9,0.4,0.9,1c0,0.6-0.4,1-1,1C277.9,106.5,277.5,106.1,277.5,105.5z"/>
		<path d="M288.8,106.3l-0.1-1h0c-0.4,0.6-1.3,1.2-2.4,1.2c-1.6,0-2.4-1.1-2.4-2.2c0-1.9,1.7-2.9,4.7-2.9v-0.2
			c0-0.6-0.2-1.8-1.8-1.8c-0.7,0-1.5,0.2-2,0.6l-0.3-0.9c0.6-0.4,1.6-0.7,2.5-0.7c2.4,0,2.9,1.6,2.9,3.2v2.9c0,0.7,0,1.3,0.1,1.9
			H288.8z M288.6,102.4c-1.5,0-3.3,0.2-3.3,1.7c0,0.9,0.6,1.3,1.3,1.3c1,0,1.6-0.6,1.9-1.3c0-0.1,0.1-0.3,0.1-0.4V102.4z"/>
		<path d="M292.3,100.7c0-0.8,0-1.5-0.1-2.1h1.2l0.1,1.3h0c0.4-0.7,1.3-1.5,2.6-1.5c1.1,0,2.7,0.6,2.7,3.3v4.6h-1.4v-4.5
			c0-1.2-0.5-2.3-1.8-2.3c-0.9,0-1.6,0.7-1.9,1.4c-0.1,0.2-0.1,0.4-0.1,0.7v4.7h-1.4V100.7z"/>
		<path d="M301.4,98.6l1.7,4.6c0.2,0.5,0.4,1.1,0.5,1.6h0c0.1-0.5,0.3-1.1,0.5-1.6l1.5-4.5h1.5l-2.1,5.5c-1,2.7-1.7,4-2.7,4.9
			c-0.7,0.6-1.4,0.8-1.7,0.9l-0.4-1.2c0.4-0.1,0.8-0.3,1.2-0.7c0.4-0.3,0.9-0.8,1.2-1.6c0.1-0.1,0.1-0.3,0.1-0.3s0-0.2-0.1-0.4
			l-2.9-7.1H301.4z"/>
		<path d="M309.2,98.6l1,3.9c0.2,0.9,0.4,1.7,0.6,2.5h0c0.2-0.8,0.4-1.6,0.7-2.4l1.3-4h1.2l1.2,3.9c0.3,0.9,0.5,1.7,0.7,2.5h0
			c0.1-0.8,0.3-1.6,0.6-2.5l1.1-3.9h1.4l-2.5,7.7h-1.3l-1.2-3.7c-0.3-0.9-0.5-1.6-0.7-2.5h0c-0.2,0.9-0.4,1.7-0.7,2.6l-1.2,3.7h-1.3
			l-2.3-7.7H309.2z"/>
		<path d="M320.4,95h1.4v4.8h0c0.2-0.4,0.6-0.8,1-1c0.4-0.2,0.9-0.4,1.4-0.4c1,0,2.7,0.6,2.7,3.3v4.6h-1.4v-4.4
			c0-1.2-0.5-2.3-1.8-2.3c-0.9,0-1.6,0.6-1.9,1.4c-0.1,0.2-0.1,0.4-0.1,0.7v4.7h-1.4V95z"/>
		<path d="M330.1,102.7c0,1.9,1.2,2.7,2.7,2.7c1,0,1.6-0.2,2.1-0.4l0.2,1c-0.5,0.2-1.3,0.5-2.6,0.5c-2.4,0-3.8-1.6-3.8-3.9
			s1.4-4.2,3.6-4.2c2.5,0,3.2,2.2,3.2,3.6c0,0.3,0,0.5,0,0.7H330.1z M334.2,101.7c0-0.9-0.4-2.3-2-2.3c-1.4,0-2,1.3-2.2,2.3H334.2z"
			/>
		<path d="M337.3,101c0-0.9,0-1.7-0.1-2.4h1.2l0,1.5h0.1c0.4-1,1.2-1.7,2.1-1.7c0.2,0,0.3,0,0.4,0v1.3c-0.1,0-0.3,0-0.5,0
			c-1,0-1.7,0.8-1.9,1.8c0,0.2-0.1,0.4-0.1,0.7v4.1h-1.4V101z"/>
		<path d="M343.2,102.7c0,1.9,1.2,2.7,2.7,2.7c1,0,1.6-0.2,2.1-0.4l0.2,1c-0.5,0.2-1.3,0.5-2.6,0.5c-2.4,0-3.8-1.6-3.8-3.9
			s1.4-4.2,3.6-4.2c2.5,0,3.2,2.2,3.2,3.6c0,0.3,0,0.5,0,0.7H343.2z M347.3,101.7c0-0.9-0.4-2.3-2-2.3c-1.4,0-2,1.3-2.2,2.3H347.3z"
			/>
	</g>
</g>
</svg>
